<svg width="34" height="19" viewBox="0 0 34 19" version="1.1" xmlns="http://www.w3.org/2000/svg" xmlns:xlink="http://www.w3.org/1999/xlink">
<g id="Canvas" fill="none">
<g id="Group 6.1">
<g id="Ellipse">
<circle cx="2" cy="2" r="2" transform="translate(6.74774 2)" fill="#FCEADE"/>
</g>
<g id="Vector">
<path d="M 3.5 0.555555L 3.5 0M 3.5 7L 3.5 6.44444M 2.02778 0.949997L 1.75 0.468872M 5.25 6.53105L 4.97222 6.04992M 0.950014 2.02776L 0.468889 1.74998M 6.53107 5.24998L 6.04994 4.97221M 0.555555 3.49998L 0 3.49998M 7 3.49998L 6.44444 3.49998M 0.950014 4.97221L 0.468889 5.24998M 6.53107 1.74998L 6.04994 2.02776M 2.02778 6.04997L 1.75 6.53109M 5.25 0.468916L 4.97222 0.950041" stroke-linecap="round" transform="translate(5.24774 0.5)" stroke="#FCEADE"/>
</g>
<g id="Vector_2">
<path d="M 1 11.6351L 21 11.6351L 21 12.6351L 1 12.6351L 1 11.6351Z" transform="translate(0.747742 1.84448)" fill="#2F80ED"/>
<path d="M 8 12.6351L 5.99994 16.6351L 6.99994 16.6351L 8.99994 12.6351L 8 12.6351Z" transform="translate(0.747742 1.84448)" fill="#2F80ED"/>
<path d="M 2.00006 12.6351L 1.07613e-07 16.6351L 1 16.6351L 3 12.6351L 2.00006 12.6351Z" transform="translate(0.747742 1.84448)" fill="#2F80ED"/>
<path d="M 24 16.6351L 24 5.15545L 25 5.15545L 25 16.6351L 24 16.6351Z" transform="translate(0.747742 1.84448)" fill="#2F80ED"/>
<path d="M 2 13.6351L 8 13.6351L 8 14.6351L 2 14.6351L 2 13.6351Z" transform="translate(0.747742 1.84448)" fill="#2F80ED"/>
<path d="M 19 13.6351L 13 13.6351L 13 14.6351L 19 14.6351L 19 13.6351Z" transform="translate(0.747742 1.84448)" fill="#2F80ED"/>
<path d="M 0 6.63506L 2 11.6351L 9 11.6351L 7 6.63506L 0 6.63506Z" transform="translate(0.747742 1.84448)" fill="#2F80ED"/>
<path d="M 14 16.6351L 12 12.6351L 13 12.6351L 15 16.6351L 14 16.6351Z" transform="translate(0.747742 1.84448)" fill="#2F80ED"/>
<path d="M 20 16.6351L 18 12.6351L 19 12.6351L 21 16.6351L 20 16.6351Z" transform="translate(0.747742 1.84448)" fill="#2F80ED"/>
<path d="M 22.5195 0.0709421C 24.0331 -0.170239 25.5801 0.20916 26.8103 1.12331L 31.5549 4.64871C 32.5277 5.37152 32.9725 6.60694 32.6838 7.78398L 14.2307 3.2582C 14.5194 2.08116 15.4854 1.19176 16.6822 1.00105L 22.5195 0.0709421Z" transform="translate(0.747742 1.84448)" fill="#2F80ED"/>
</g>
<g id="Vector_3">
<path d="M 0 0C 0 1.65685 0.843146 2.5 2.5 2.5L 10.5 2.5C 8.84315 2.5 8 1.65685 8 0M 4 0C 4 1.65685 4.84315 2.5 6.5 2.5" transform="translate(11.2477 9)" stroke="#FCEADE"/>
</g>
</g>
</g>
</svg>

