<svg width="42" height="17" viewBox="0 0 42 17" version="1.1" xmlns="http://www.w3.org/2000/svg" xmlns:xlink="http://www.w3.org/1999/xlink">
<g id="Canvas" fill="none">
<g id="ico-train">
<g id="Group 6">
<g id="Vector">
<path d="M 0 3L 0 14.5C 0 15.0523 0.447715 15.5 1 15.5L 39.5 15.4545C 41.48 15.4545 42.4064 13.2177 41.2576 11.6051L 37.1741 5.87335C 34.5487 2.18812 30.5248 0 26 0L 3 0C 1.29143 0 0 1.29143 0 3Z" fill="#2F80ED"/>
<path d="M 12.3509 15.4545C 12.3509 16.308 11.6597 17 10.807 17C 9.95438 17 9.26317 16.308 9.26317 15.4545C 9.26317 14.601 9.95438 13.9091 10.807 13.9091C 11.6597 13.9091 12.3509 14.601 12.3509 15.4545Z" fill="#2F80ED"/>
<path d="M 7.71931 15.4545C 7.71931 16.308 7.0281 17 6.17545 17C 5.3228 17 4.63159 16.308 4.63159 15.4545C 4.63159 14.601 5.3228 13.9091 6.17545 13.9091C 7.0281 13.9091 7.71931 14.601 7.71931 15.4545Z" fill="#2F80ED"/>
<path d="M 35.5088 15.4545C 35.5088 16.308 34.8176 17 33.9649 17C 33.1123 17 32.4211 16.308 32.4211 15.4545C 32.4211 14.601 33.1123 13.9091 33.9649 13.9091C 34.8176 13.9091 35.5088 14.601 35.5088 15.4545Z" fill="#2F80ED"/>
<path d="M 30.8772 15.4545C 30.8772 16.308 30.186 17 29.3333 17C 28.4807 17 27.7895 16.308 27.7895 15.4545C 27.7895 14.601 28.4807 13.9091 29.3333 13.9091C 30.186 13.9091 30.8772 14.601 30.8772 15.4545Z" fill="#2F80ED"/>
</g>
<g id="Mask Group">
<mask id="mask0" mask-type="alpha" maskUnits="userSpaceOnUse" x="0" y="3" width="42" height="6">
<g id="Vector_2">
<path d="M 0 0L 1.55556 0C 2.41467 0 3.11111 0.671573 3.11111 1.5L 3.11111 4.5C 3.11111 5.32843 2.41467 6 1.55556 6L 0 6L 0 0Z" transform="translate(0 3)" fill="#FCEADE"/>
<path d="M 6.22222 1.5C 6.22222 0.671573 6.91867 0 7.77778 0L 9.33333 0C 10.1924 0 10.8889 0.671573 10.8889 1.5L 10.8889 4.5C 10.8889 5.32843 10.1924 6 9.33333 6L 7.77778 6C 6.91867 6 6.22222 5.32843 6.22222 4.5L 6.22222 1.5Z" transform="translate(0 3)" fill="#FCEADE"/>
<path d="M 14 1.5C 14 0.671573 14.6964 0 15.5556 0L 17.1111 0C 17.9702 0 18.6667 0.671573 18.6667 1.5L 18.6667 4.5C 18.6667 5.32843 17.9702 6 17.1111 6L 15.5556 6C 14.6964 6 14 5.32843 14 4.5L 14 1.5Z" transform="translate(0 3)" fill="#FCEADE"/>
<path d="M 21.7778 1.5C 21.7778 0.671573 22.4742 0 23.3333 0L 37 0L 42 6L 23.3333 6C 22.4742 6 21.7778 5.32843 21.7778 4.5L 21.7778 1.5Z" transform="translate(0 3)" fill="#FCEADE"/>
</g>
</mask>
<g mask="url(#mask0)">
<g id="Vector 2">
<path d="M 0 3.09365L 0 14.4545C 0 15.0068 0.447714 15.4545 0.999999 15.4545L 39.2736 15.4545C 41.2536 15.4545 42.4064 13.2177 41.2576 11.6051L 37.1741 5.87335C 34.5487 2.18812 30.3032 0 25.7784 0L 3.09365 0C 1.38507 0 0 1.38507 0 3.09365Z" fill="#FCEADE"/>
</g>
</g>
</g>
<g id="Rectangle 5">
<rect width="2" height="2" rx="1" transform="translate(34 12)" fill="#FCEADE"/>
</g>
<g id="Rectangle 5.1">
<path d="M 0 1C 0 0.447715 0.447715 0 1 0C 1.55228 0 2 0.447715 2 1C 2 1.55228 1.55228 2 1 2C 0.447715 2 0 1.55228 0 1Z" transform="translate(38 12)" fill="#FCEADE"/>
</g>
</g>
</g>
</g>
</svg>

