<svg width="11" height="12" viewBox="0 0 11 12" version="1.1" xmlns="http://www.w3.org/2000/svg" xmlns:xlink="http://www.w3.org/1999/xlink">
<g id="Canvas" fill="none">
<g id="Vector" opacity="0.2">
<path d="M 0 5L -0.353553 4.64645L -0.707107 5L -0.353553 5.35355L 0 5ZM 9 5.5L 9.5 5.5L 9.5 4.5L 9 4.5L 9 5.5ZM 5.35355 0.353553L 5.70711 0L 5 -0.707107L 4.64645 -0.353553L 5.35355 0.353553ZM 4.64645 10.3536L 5 10.7071L 5.70711 10L 5.35355 9.64645L 4.64645 10.3536ZM 0 5.5L 9 5.5L 9 4.5L 0 4.5L 0 5.5ZM 4.64645 -0.353553L -0.353553 4.64645L 0.353553 5.35355L 5.35355 0.353553L 4.64645 -0.353553ZM -0.353553 5.35355L 4.64645 10.3536L 5.35355 9.64645L 0.353553 4.64645L -0.353553 5.35355Z" transform="translate(10 11) scale(-1)" fill="#333333"/>
</g>
</g>
</svg>

