<svg width="12" height="19" viewBox="0 0 12 19" version="1.1" xmlns="http://www.w3.org/2000/svg" xmlns:xlink="http://www.w3.org/1999/xlink">
<g id="Canvas" fill="none">
<g id="Vector">
<path d="M 9.93985 6.8633L 9.93985 4.12428C 9.93985 1.8575 8.18045 0 6 0C 3.81955 0 2.06015 1.8575 2.06015 4.12428L 2.06015 6.8633C 0.796992 8.01243 0 9.69677 0 11.5857L 0 16.7647C 0 17.9925 0.947368 19 2.13534 19L 9.86466 19C 11.0376 19 12 18.0083 12 16.7647L 12 11.5857C 12 9.69677 11.203 8.01243 9.93985 6.8633ZM 3.71429 4.12428C 3.71429 2.80199 4.73684 1.73157 6 1.73157C 7.26316 1.73157 8.28571 2.80199 8.28571 4.12428L 8.28571 5.77713C 7.57895 5.47804 6.81203 5.30489 6 5.30489C 5.18797 5.30489 4.42105 5.47804 3.71429 5.77713L 3.71429 4.12428Z" transform="translate(0 0.000488281)" fill="#5BDEBE"/>
</g>
</g>
</svg>

