<svg width="35" height="17" viewBox="0 0 35 17" version="1.1" xmlns="http://www.w3.org/2000/svg" xmlns:xlink="http://www.w3.org/1999/xlink">
<g id="Canvas" fill="none">
<g id="ico-car">
<g id="Vector" opacity="0.3">
<path d="M 19 2.06232C 19 3.13247 18.1046 4 17 4C 15.8954 4 15 3.13247 15 2.06232C 15 0.992162 15.8954 0 17 0C 18.1046 0 19 0.992162 19 2.06232Z" transform="translate(11.7477 13)" fill="#F4737C"/>
<path d="M 4 2.06232C 4 3.13247 3.10457 4 2 4C 0.895431 4 0 3.13247 0 2.06232C 0 0.992162 0.895431 0 2 0C 3.10457 0 4 0.992162 4 2.06232Z" transform="translate(11.7477 13)" fill="#F4737C"/>
</g>
<g id="Vector_2">
<path d="M 2.71766 15.5909L 31.6219 15.5909C 33.1637 15.5909 34.4136 14.341 34.4136 12.7992C 34.4136 11.1637 33.2776 9.74756 31.681 9.39276L 25.4136 8L 22.9002 1.29775C 22.6075 0.517146 21.8613 0 21.0276 0L 18.1791 0C 17.1705 0 16.3197 0.751073 16.1946 1.75193L 15.4136 8L 9.64603 8.32042C 7.50246 8.43951 5.38761 8.86978 3.36791 9.59773L 1.5858 10.2401C 1.12286 10.4069 0.742001 10.7457 0.522363 11.1861L 0.285785 11.6604C -0.235321 12.7052 -0.0308697 13.966 0.793678 14.7926C 1.30351 15.3037 1.99575 15.5909 2.71766 15.5909Z" transform="translate(0.334167 0)" fill="url(#paint0_linear)"/>
<path d="M 25.8224 7L 24.4136 7L 24.9136 9L 26.1743 8.06613C 26.3248 7.95464 26.4136 7.77842 26.4136 7.59112C 26.4136 7.26466 26.1489 7 25.8224 7Z" transform="translate(0.334167 0)" fill="url(#paint1_linear)"/>
<path d="M 13.9732 7L 15.9136 7L 15.4136 9L 13.7014 8.0488C 13.5238 7.9501 13.4136 7.76284 13.4136 7.55961C 13.4136 7.25055 13.6641 7 13.9732 7Z" transform="translate(0.334167 0)" fill="url(#paint2_linear)"/>
<path d="M 7.41357 15.0623C 7.41357 16.1325 6.51814 17 5.41357 17C 4.309 17 3.41357 16.1325 3.41357 15.0623C 3.41357 13.9922 4.309 13 5.41357 13C 6.51814 13 7.41357 13.9922 7.41357 15.0623Z" transform="translate(0.334167 0)" fill="url(#paint3_linear)"/>
<path d="M 20.4136 15.0623C 20.4136 16.1325 19.5181 17 18.4136 17C 17.309 17 16.4136 16.1325 16.4136 15.0623C 16.4136 13.9922 17.309 13 18.4136 13C 19.5181 13 20.4136 13.9922 20.4136 15.0623Z" transform="translate(0.334167 0)" fill="url(#paint4_linear)"/>
</g>
<g id="Vector 2.3">
<path d="M 0 -0.5C -0.276142 -0.5 -0.5 -0.276142 -0.5 0C -0.5 0.276142 -0.276142 0.5 0 0.5L 0 -0.5ZM 5 0.5C 5.27614 0.5 5.5 0.276142 5.5 0C 5.5 -0.276142 5.27614 -0.5 5 -0.5L 5 0.5ZM 0 0.5L 5 0.5L 5 -0.5L 0 -0.5L 0 0.5Z" transform="translate(0.747742 10)" fill="#FCEADE"/>
</g>
<g id="Vector 2.4">
<path d="M 0 -0.5C -0.276142 -0.5 -0.5 -0.276142 -0.5 0C -0.5 0.276142 -0.276142 0.5 0 0.5L 0 -0.5ZM 3 0.5C 3.27614 0.5 3.5 0.276142 3.5 0C 3.5 -0.276142 3.27614 -0.5 3 -0.5L 3 0.5ZM 0 0.5L 3 0.5L 3 -0.5L 0 -0.5L 0 0.5Z" transform="translate(3.74774 12)" fill="#FCEADE"/>
</g>
<g id="Vector 2.5">
<path d="M 0 -0.5C -0.276142 -0.5 -0.5 -0.276142 -0.5 0C -0.5 0.276142 -0.276142 0.5 0 0.5L 0 -0.5ZM 5 0.5C 5.27614 0.5 5.5 0.276142 5.5 0C 5.5 -0.276142 5.27614 -0.5 5 -0.5L 5 0.5ZM 2.5 1.5C 2.22386 1.5 2 1.72386 2 2C 2 2.27614 2.22386 2.5 2.5 2.5L 2.5 1.5ZM 4.5 2.5C 4.77614 2.5 5 2.27614 5 2C 5 1.72386 4.77614 1.5 4.5 1.5L 4.5 2.5ZM 0 0.5L 5 0.5L 5 -0.5L 0 -0.5L 0 0.5ZM 2.5 2.5L 4.5 2.5L 4.5 1.5L 2.5 1.5L 2.5 2.5Z" transform="translate(14.7477 1.5)" fill="#FCEADE"/>
</g>
<g id="Vector 2">
<path d="M 6.99999 7L 1.24078 7C 0.704038 7 0.263024 6.57627 0.241574 6.03996L 0.0415944 1.03996C 0.0188963 0.472456 0.472834 0 1.0408 0L 3.90379 0C 4.33202 0 4.71271 0.272665 4.85056 0.6781L 6.99999 7Z" transform="translate(17.7477 1)" fill="#FCEADE"/>
</g>
<g id="Rectangle 5">
<path d="M 0.334659 0.661365C 0.431831 0.272676 0.781068 0 1.18172 0C 1.74975 0 2.16655 0.533822 2.02878 1.0849L 1.96535 1.33864C 1.86817 1.72732 1.51894 2 1.11828 2C 0.550251 2 0.133456 1.46618 0.271224 0.915105L 0.334659 0.661365Z" transform="translate(22.7477 12)" fill="white"/>
</g>
<g id="Rectangle 5.1">
<path d="M 0.334659 0.661365C 0.431831 0.272676 0.781068 0 1.18172 0C 1.74975 0 2.16655 0.533822 2.02878 1.0849L 1.96535 1.33864C 1.86817 1.72732 1.51894 2 1.11828 2C 0.550251 2 0.133456 1.46618 0.271224 0.915105L 0.334659 0.661365Z" transform="translate(31.7477 12)" fill="white"/>
</g>
</g>
</g>
<defs>

<linearGradient id="paint0_linear" x2="1" gradientUnits="userSpaceOnUse" gradientTransform="matrix(0 17 -34.3765 0 34.3765 0)">
<stop stop-color="#F56573"/>
<stop offset="1" stop-color="#F08385"/>
</linearGradient>
<linearGradient id="paint1_linear" x2="1" gradientUnits="userSpaceOnUse" gradientTransform="matrix(0 17 -34.3765 0 34.3765 0)">
<stop stop-color="#F56573"/>
<stop offset="1" stop-color="#F08385"/>
</linearGradient>
<linearGradient id="paint2_linear" x2="1" gradientUnits="userSpaceOnUse" gradientTransform="matrix(0 17 -34.3765 0 34.3765 0)">
<stop stop-color="#F56573"/>
<stop offset="1" stop-color="#F08385"/>
</linearGradient>
<linearGradient id="paint3_linear" x2="1" gradientUnits="userSpaceOnUse" gradientTransform="matrix(0 17 -34.3765 0 34.3765 0)">
<stop stop-color="#F56573"/>
<stop offset="1" stop-color="#F08385"/>
</linearGradient>
<linearGradient id="paint4_linear" x2="1" gradientUnits="userSpaceOnUse" gradientTransform="matrix(0 17 -34.3765 0 34.3765 0)">
<stop stop-color="#F56573"/>
<stop offset="1" stop-color="#F08385"/>
</linearGradient>

</defs>
</svg>

