<svg width="16" height="20" viewBox="0 0 16 20" version="1.1" xmlns="http://www.w3.org/2000/svg" xmlns:xlink="http://www.w3.org/1999/xlink">
<g id="Canvas" fill="none">
<g id="Vector">
<path d="M 0 11L -0.375809 10.6702L -0.665232 11L -0.375809 11.3298L 0 11ZM 18 3L 18.3758 3.3298L 18.6652 3L 18.3758 2.6702L 18 3ZM 0.375809 11.3298L 3.00852 8.3298L 2.25691 7.6702L -0.375809 10.6702L 0.375809 11.3298ZM 3.00852 13.6702L 0.375809 10.6702L -0.375809 11.3298L 2.25691 14.3298L 3.00852 13.6702ZM 18 10.5L 0 10.5L 0 11.5L 18 11.5L 18 10.5ZM 17.6242 2.6702L 14.9915 5.6702L 15.7431 6.3298L 18.3758 3.3298L 17.6242 2.6702ZM 14.9915 0.329799L 17.6242 3.3298L 18.3758 2.6702L 15.7431 -0.329799L 14.9915 0.329799ZM 0 3.5L 18 3.5L 18 2.5L 0 2.5L 0 3.5Z" transform="matrix(0 -1 -1 0 15 19)" fill="white"/>
</g>
</g>
</svg>

