<svg width="12" height="19" viewBox="0 0 12 19" version="1.1" xmlns="http://www.w3.org/2000/svg" xmlns:xlink="http://www.w3.org/1999/xlink">
<g id="Canvas" fill="none">
<g id="Vector">
<path d="M 10 5.99951L 7 5.99951L 7 1.99951C 7.58182 1.99951 8 1.50049 8 1.00049C 8 0.500488 7.5 0 7 0L 5 0C 4.5 0 4 0.498535 4 0.999512C 4 1.50049 4.5 1.99951 5 1.99951L 5 5.99951L 2 5.99951C 0.813517 5.99951 0 6.77066 0 7.99951L 0 15.3129C 0 16.526 0.916145 17.5028 2.05757 17.5343L 2.05757 18.133C 2.05757 18.6056 2.43304 18.9995 2.8836 18.9995C 3.33417 18.9995 3.70964 18.6056 3.70964 18.133L 3.70964 17.5343L 8.29036 17.5343L 8.29036 18.133C 8.29036 18.6056 8.66583 18.9995 9.11639 18.9995C 9.56696 18.9995 9.94243 18.6056 9.94243 18.133L 9.94243 17.5343C 11.0839 17.4871 12 16.5103 12 15.3129L 12 7.99951C 11.985 6.77066 11.1715 5.99951 10 5.99951Z" fill="#F73F43"/>
</g>
</g>
</svg>

