<svg width="14" height="14" viewBox="0 0 14 14" version="1.1" xmlns="http://www.w3.org/2000/svg" xmlns:xlink="http://www.w3.org/1999/xlink">
<g id="Canvas" fill="none">
<g id="Vector">
<path d="M 12.9565 13L 12.9565 13C 13.4871 11.8983 12.843 10.5911 11.6462 10.3405L 10.0677 10.01C 9.34426 9.8585 8.82609 9.22059 8.82609 8.48146L 8.82609 8.48146C 8.82609 8.24684 8.87895 8.01523 8.98076 7.80384L 9.32803 7.08277C 9.68715 6.33709 9.9362 5.54326 10.0674 4.72607L 10.1343 4.30946C 10.2941 3.31409 9.92733 2.30692 9.16495 1.64734L 9.16495 1.64734C 8.07174 0.701534 6.45 0.701534 5.35679 1.64734L 5.35679 1.64734C 4.5944 2.30692 4.22768 3.31409 4.38747 4.30945L 4.45435 4.72607C 4.58554 5.54326 4.83458 6.33709 5.19371 7.08276L 5.54324 7.80854C 5.64356 8.01683 5.69565 8.24506 5.69565 8.47625L 5.69565 8.47625C 5.69565 9.21526 5.17033 9.84992 4.44434 9.988L 2.36249 10.384C 1.17007 10.6108 0.516805 11.9064 1.04348 13L 1.04348 13" stroke="#2F80ED"/>
</g>
</g>
</svg>

