<svg viewBox="0 0 370 48" fill="none"
  xmlns="http://www.w3.org/2000/svg">
  <g opacity="0.2">
    <path opacity="0.3" d="M3 1.5C3 2.32843 2.32843 3 1.5 3C0.671573 3 0 2.32843 0 1.5C0 0.671573 0.671573 0 1.5 0C2.32843 0 3 0.671573 3 1.5Z" transform="translate(22.9572 39.6975) rotate(-15)" fill="#2F80ED"/>
    <path d="M2.74775 1C2.74775 0.447715 3.19547 0 3.74775 0H4.91154C5.87941 0 6.78783 0.466955 7.35112 1.25402L10.7478 6H2.74775V1Z" transform="translate(0 30.3198) rotate(-15)" fill="#2F80ED"/>
    <path d="M1.08818 3.95745C1.79551 3.34014 2.70255 3 3.64137 3H8.24775C9.07618 3 9.74775 3.67157 9.74775 4.5C9.74775 5.32843 9.07618 6 8.24775 6H1.85414C0.777774 6 0.277221 4.66519 1.08818 3.95745Z" transform="translate(0 30.3198) rotate(-15)" fill="#2F80ED"/>
    <path d="M25.4584 3H6.20691C3.08527 3 1.52195 6.77419 3.72928 8.98152L4.36644 9.61868C9.09262 14.3449 15.5027 17 22.1865 17H38.0214C39.9376 17 41.0106 14.7911 39.826 13.2849L35.6192 7.93573C33.1684 4.81935 29.423 3 25.4584 3Z" transform="translate(0 30.3198) rotate(-15)" fill="#2F80ED"/>
    <path d="M0.454799 11.9375C2.95578 10.032 6.01306 9 9.15725 9L15.2478 9.00001C16.6285 9.00001 17.7478 10.1193 17.7478 11.5C17.7478 12.8807 16.6285 14 15.2478 14H1.15099C0.0514286 14 -0.41983 12.6039 0.454799 11.9375Z" transform="translate(0 30.3198) rotate(-15)" fill="#2F80ED"/>
    <path d="M34.7477 16.5C34.7477 17.3284 34.0762 18 33.2477 18C32.4193 18 31.7477 17.3284 31.7477 16.5C31.7477 15.6716 32.4193 15 33.2477 15C34.0762 15 34.7477 15.6716 34.7477 16.5Z" transform="translate(0 30.3198) rotate(-15)" fill="#2F80ED"/>
    <path d="M16.7477 16.5C16.7477 17.3284 16.0762 18 15.2477 18C14.4193 18 13.7477 17.3284 13.7477 16.5C13.7477 15.6716 14.4193 15 15.2477 15C16.0762 15 16.7477 15.6716 16.7477 16.5Z" transform="translate(0 30.3198) rotate(-15)" fill="#2F80ED"/>
    <path d="M0 1C0 0.447715 0.447715 0 1 0C1.55228 0 2 0.447715 2 1V2C2 2.55228 1.55228 3 1 3C0.447715 3 0 2.55228 0 2V1Z" transform="translate(10.0026 33.8513) rotate(-15)" fill="#FCEADE"/>
    <path d="M4 1C4 0.447715 4.44772 0 5 0C5.55228 0 6 0.447715 6 1V2C6 2.55228 5.55228 3 5 3C4.44772 3 4 2.55228 4 2V1Z" transform="translate(10.0026 33.8513) rotate(-15)" fill="#FCEADE"/>
    <path d="M8 1C8 0.447715 8.44772 0 9 0C9.55228 0 10 0.447715 10 1V2C10 2.55228 9.55228 3 9 3C8.44772 3 8 2.55228 8 2V1Z" transform="translate(10.0026 33.8513) rotate(-15)" fill="#FCEADE"/>
    <path d="M12 1C12 0.447715 12.4477 0 13 0C13.5523 0 14 0.447715 14 1V2C14 2.55228 13.5523 3 13 3C12.4477 3 12 2.55228 12 2V1Z" transform="translate(10.0026 33.8513) rotate(-15)" fill="#FCEADE"/>
    <mask id="mask0" mask-type="alpha" maskUnits="userSpaceOnUse" x="24" y="26" width="16" height="9">
      <path d="M12.7183 7.28406L10.8879 4.95659C8.4267 1.82704 4.66548 0 0.684078 0C0.351083 0 0.118919 0.330329 0.231711 0.643641L1.68816 4.68935C1.76267 4.89631 1.84769 5.09935 1.94288 5.29766L2.54422 6.55045C2.82279 7.13082 3.40951 7.5 4.05327 7.5C5.30826 7.5 6.52059 7.95551 7.46506 8.78193L10 11C12.264 11.849 14.213 9.18464 12.7183 7.28406Z" transform="translate(24.6809 26.8125) rotate(-15)" fill="#2F80ED"/>
    </mask>
    <g mask="url(#mask0)">
      <path d="M0.438743 1.31623C0.222899 0.668697 0.704868 0 1.38743 0H7.22222L10 3H2.44152C1.58066 3 0.81638 2.44914 0.544152 1.63246L0.438743 1.31623Z" transform="translate(27.3893 29.1926) rotate(-15)" fill="#FCEADE"/>
    </g>
  </g>
  <g opacity="0.2">
    <path opacity="0.3" d="M3 1.5C3 2.32843 2.32843 3 1.5 3C0.671573 3 0 2.32843 0 1.5C0 0.671573 0.671573 0 1.5 0C2.32843 0 3 0.671573 3 1.5Z" transform="translate(343.851 38.856) rotate(15)" fill="#2F80ED"/>
    <path d="M2.74775 1C2.74775 0.447715 3.19547 0 3.74775 0H4.91154C5.87941 0 6.78783 0.466955 7.35112 1.25402L10.7478 6H2.74775V1Z" transform="translate(328.659 19.2559) rotate(15)" fill="#2F80ED"/>
    <path d="M1.08818 3.95745C1.79551 3.34014 2.70255 3 3.64137 3H8.24775C9.07618 3 9.74775 3.67157 9.74775 4.5C9.74775 5.32843 9.07618 6 8.24775 6H1.85414C0.777774 6 0.277221 4.66519 1.08818 3.95745Z" transform="translate(328.659 19.2559) rotate(15)" fill="#2F80ED"/>
    <path d="M25.4584 3H6.20691C3.08527 3 1.52195 6.77419 3.72928 8.98152L4.36644 9.61868C9.09262 14.3449 15.5027 17 22.1865 17H38.0214C39.9376 17 41.0106 14.7911 39.826 13.2849L35.6192 7.93573C33.1684 4.81935 29.423 3 25.4584 3Z" transform="translate(328.659 19.2559) rotate(15)" fill="#2F80ED"/>
    <path d="M0.454799 11.9375C2.95578 10.032 6.01306 9 9.15725 9L15.2478 9.00001C16.6285 9.00001 17.7478 10.1193 17.7478 11.5C17.7478 12.8807 16.6285 14 15.2478 14H1.15099C0.0514286 14 -0.41983 12.6039 0.454799 11.9375Z" transform="translate(328.659 19.2559) rotate(15)" fill="#2F80ED"/>
    <path d="M34.7477 16.5C34.7477 17.3284 34.0762 18 33.2477 18C32.4193 18 31.7477 17.3284 31.7477 16.5C31.7477 15.6716 32.4193 15 33.2477 15C34.0762 15 34.7477 15.6716 34.7477 16.5Z" transform="translate(328.659 19.2559) rotate(15)" fill="#2F80ED"/>
    <path d="M16.7477 16.5C16.7477 17.3284 16.0762 18 15.2477 18C14.4193 18 13.7477 17.3284 13.7477 16.5C13.7477 15.6716 14.4193 15 15.2477 15C16.0762 15 16.7477 15.6716 16.7477 16.5Z" transform="translate(328.659 19.2559) rotate(15)" fill="#2F80ED"/>
    <path d="M0 1C0 0.447715 0.447715 0 1 0C1.55228 0 2 0.447715 2 1V2C2 2.55228 1.55228 3 1 3C0.447715 3 0 2.55228 0 2V1Z" transform="translate(335.555 27.3154) rotate(15)" fill="#FCEADE"/>
    <path d="M4 1C4 0.447715 4.44772 0 5 0C5.55228 0 6 0.447715 6 1V2C6 2.55228 5.55228 3 5 3C4.44772 3 4 2.55228 4 2V1Z" transform="translate(335.555 27.3154) rotate(15)" fill="#FCEADE"/>
    <path d="M8 1C8 0.447715 8.44772 0 9 0C9.55228 0 10 0.447715 10 1V2C10 2.55228 9.55228 3 9 3C8.44772 3 8 2.55228 8 2V1Z" transform="translate(335.555 27.3154) rotate(15)" fill="#FCEADE"/>
    <path d="M12 1C12 0.447715 12.4477 0 13 0C13.5523 0 14 0.447715 14 1V2C14 2.55228 13.5523 3 13 3C12.4477 3 12 2.55228 12 2V1Z" transform="translate(335.555 27.3154) rotate(15)" fill="#FCEADE"/>
    <mask id="mask1" mask-type="alpha" maskUnits="userSpaceOnUse" x="351" y="28" width="12" height="15">
      <path d="M12.7183 7.28406L10.8879 4.95659C8.4267 1.82704 4.66548 0 0.684078 0C0.351083 0 0.118919 0.330329 0.231711 0.643641L1.68816 4.68935C1.76267 4.89631 1.84769 5.09935 1.94288 5.29766L2.54422 6.55045C2.82279 7.13082 3.40951 7.5 4.05327 7.5C5.30826 7.5 6.52059 7.95551 7.46506 8.78193L10 11C12.264 11.849 14.213 9.18464 12.7183 7.28406Z" transform="translate(351.787 28.5588) rotate(15)" fill="#2F80ED"/>
    </mask>
    <g mask="url(#mask1)">
      <path d="M0.438743 1.31623C0.222899 0.668697 0.704868 0 1.38743 0H7.22222L10 3H2.44152C1.58066 3 0.81638 2.44914 0.544152 1.63246L0.438743 1.31623Z" transform="translate(352.942 31.9741) rotate(15)" fill="#FCEADE"/>
    </g>
  </g>
  <path d="M266 21.9109C224.271 7.70576 179.535 0 133 0C86.4648 0 41.7293 7.70576 0 21.9109" transform="translate(50.5 1)" stroke="#D5E6FB"/>
</svg>
