<svg viewBox="0 0 84 9" version="1.1" 
    xmlns="http://www.w3.org/2000/svg" 
    xmlns:xlink="http://www.w3.org/1999/xlink">
    <g id="Canvas">
        <g id="logo">
            <path d="M 65.132 7.2L 65.132 8.89412L 72.0609 8.89412L 72.0609 7.09412L 68.1168 7.09412C 67.0508 7.09412 66.0914 7.2 65.132 7.2ZM 54.8985 6.98823L 54.3655 8.04706C 54.8985 8.47059 55.5381 8.68235 56.1777 8.78823C 56.8173 8.89412 57.4568 9 58.203 9C 58.8426 9 59.3756 8.89412 59.9086 8.78823C 60.4416 8.68235 60.7614 8.47059 61.0812 8.25882C 61.401 8.04706 61.6142 7.72941 61.8274 7.30588L 61.8274 7.2L 54.8985 6.98823ZM 44.7716 5.92941L 44.7716 8.78823L 46.797 8.78823L 46.797 6.24706C 46.0508 6.14117 45.4112 6.03529 44.7716 5.92941ZM 34.2183 4.34117L 32.4061 8.78823L 34.5381 8.78823L 36.1371 4.55294C 35.3909 4.55294 34.7513 4.44706 34.2183 4.34117ZM 39.6548 8.89412L 41.8934 8.89412L 40.401 5.29411C 39.6548 5.18823 39.0152 5.08235 38.269 4.97647L 39.6548 8.89412ZM 23.132 3.6L 23.132 8.89412L 30.0609 8.89412L 30.0609 7.09412L 25.1574 7.09412L 25.1574 5.18823L 29.3147 5.18823L 29.3147 3.81176C 27.2893 3.70588 25.264 3.6 23.132 3.6ZM 11.2995 4.02353L 11.2995 8.78823L 13.3249 8.78823L 13.3249 5.29411L 17.1624 5.29411L 17.1624 8.89412L 19.1878 8.89412L 19.1878 3.6C 16.5228 3.70588 13.8579 3.81176 11.2995 4.02353ZM 0.106599 5.82353C 0.106599 6.03529 0.213198 6.14117 0.319797 6.35294C 0.532995 6.88235 0.852792 7.41176 1.27919 7.83529C 1.70558 8.15294 2.13198 8.47059 2.77157 8.68235C 3.30457 8.89412 3.94416 9 4.69036 9C 6.18274 9 7.46193 8.57647 8.52792 7.62353L 7.35533 6.24706C 7.03553 6.5647 6.60914 6.77647 6.18274 6.98823C 5.75635 7.09412 5.22335 7.2 4.79695 7.2C 4.37056 7.2 4.05076 7.09412 3.62437 6.98823C 3.30457 6.88235 2.98477 6.67059 2.77157 6.45882C 2.45178 6.24706 2.23858 5.92941 2.13198 5.61176C 2.13198 5.61176 2.13198 5.50588 2.02538 5.50588C 1.38579 5.50588 0.746193 5.71764 0.106599 5.82353ZM 81.7614 8.89412L 84 8.89412L 82.5076 5.18823C 81.868 5.29411 81.2284 5.4 80.5888 5.61176L 81.7614 8.89412ZM 75.4721 6.35294L 74.4061 8.78823L 76.5381 8.78823L 77.6041 6.03529C 76.9645 6.14117 76.2183 6.24706 75.4721 6.35294Z" fill="currentColor"/>
            <path d="M 70.3553 0.211765L 63.8528 0.211765L 63.8528 5.29412C 65.8782 5.18824 67.9035 5.08236 69.9289 4.97647L 69.9289 3.6L 65.8782 3.6L 65.8782 1.90588L 70.3553 1.90588L 70.3553 0.211765ZM 59.5888 2.4353L 60.5482 1.05882C 60.1218 0.635295 59.5888 0.42353 58.9492 0.211765C 58.4162 0.105882 57.7766 0 57.1371 0C 56.6041 0 56.1777 0.105882 55.7513 0.211765C 55.3249 0.317647 55.0051 0.529412 54.6853 0.741177C 54.3655 0.952942 54.1523 1.27059 53.9391 1.58824C 53.7259 1.90588 53.7259 2.32941 53.7259 2.75294C 53.7259 3.49412 53.9391 4.12941 54.4721 4.55294C 54.7919 4.87059 55.4315 5.18824 56.2843 5.29412L 56.4975 5.29412C 57.8832 5.4 59.269 5.4 60.7614 5.4C 60.6548 5.08236 60.4416 4.76471 60.2284 4.44706C 59.802 4.02353 59.0558 3.70588 58.0964 3.6L 56.8173 3.38824C 56.3909 3.38824 56.1777 3.28236 55.9645 3.07059C 55.7513 2.96471 55.6447 2.75294 55.6447 2.54118C 55.6447 2.22353 55.7513 2.11765 55.9645 1.90588C 56.1777 1.8 56.6041 1.69412 57.1371 1.69412C 57.5634 1.69412 57.9898 1.8 58.4162 1.90588C 58.9492 2.01177 59.269 2.22353 59.5888 2.4353ZM 47.7563 0.211765L 43.9188 0.211765L 43.9188 4.02353C 44.5584 4.02353 45.198 4.12941 45.8376 4.2353L 45.8376 1.90588L 47.6497 1.90588C 48.1827 1.90588 48.6091 2.01177 48.8223 2.32941C 49.0355 2.54118 49.2487 2.96471 49.2487 3.38824C 49.2487 3.81177 49.1421 4.12941 48.8223 4.44706C 48.7157 4.55294 48.6091 4.55294 48.5025 4.65883C 49.2487 4.76471 50.1015 4.87059 50.8477 4.87059C 50.8477 4.76471 50.9543 4.76471 50.9543 4.65883C 51.1675 4.2353 51.2741 3.81177 51.2741 3.28236C 51.2741 2.85883 51.1675 2.32941 51.0609 2.01177C 50.8477 1.58824 50.6345 1.27059 50.3147 1.05882C 49.9949 0.741177 49.6751 0.529412 49.2487 0.42353C 48.7157 0.211765 48.2893 0.211765 47.7563 0.211765ZM 37.4162 0.211765L 35.2843 0.211765L 34.3249 2.64706C 34.9645 2.75294 35.4975 2.75294 36.0305 2.85883L 36.1371 2.54118L 36.2437 2.11765L 36.3503 2.11765L 36.5634 2.64706L 36.6701 2.85883C 37.3096 2.96471 38.0558 3.07059 38.6954 3.17647L 37.4162 0.211765ZM 22.7056 0.211765L 22.7056 1.8C 24.4112 1.8 26.1168 1.90588 27.7157 2.01177L 29.3147 2.01177L 29.3147 0.211765L 22.7056 0.211765ZM 18.868 1.8L 18.868 0.211765L 16.9492 0.211765L 16.9492 1.90588C 17.5888 1.8 18.2284 1.8 18.868 1.8ZM 13.1117 0.211765L 11.1929 0.211765L 11.1929 2.22353C 11.7259 2.11765 12.3655 2.11765 13.1117 2.01177L 13.1117 0.211765ZM 7.03553 2.64706L 8.10152 1.27059C 7.67513 0.847059 7.24873 0.529412 6.60914 0.317647C 6.07614 0.105882 5.43655 0 4.79695 0C 4.05076 0 3.30457 0.105882 2.77157 0.317647C 2.13198 0.635295 1.70558 0.952942 1.27919 1.37647C 0.852792 1.69412 0.532995 2.22353 0.319797 2.75294C 0.106599 3.17647 0 3.49412 0 3.91765C 0.639594 3.81177 1.38579 3.6 2.02538 3.49412L 2.02538 3.38824C 2.13198 3.07059 2.34518 2.75294 2.55838 2.54118C 2.87817 2.32941 3.19797 2.11765 3.51777 2.01177C 3.83756 1.8 4.26396 1.8 4.69036 1.8C 5.22335 1.8 5.64975 1.90588 5.96954 2.01177C 6.39594 2.11765 6.71574 2.32941 7.03553 2.64706ZM 78.7766 0.211765L 76.6447 0.211765L 74.9391 4.34118C 75.5787 4.2353 76.3249 4.12941 76.9645 4.02353L 77.6041 2.11765L 77.7107 2.11765L 77.9239 2.64706L 78.3503 3.81177C 78.9898 3.70588 79.5228 3.6 80.1624 3.49412L 78.7766 0.211765Z" fill="currentColor"/>
        </g>
    </g>
</svg>

