<svg viewBox="0 0 41 18" version="1.1" 
    xmlns="http://www.w3.org/2000/svg" 
    xmlns:xlink="http://www.w3.org/1999/xlink">
    <g id="Canvas" fill="none">
        <g id="ico-plane">
            <g id="Vector" opacity="0.3">
                <path d="M 3 1.5C 3 2.32843 2.32843 3 1.5 3C 0.671573 3 0 2.32843 0 1.5C 0 0.671573 0.671573 0 1.5 0C 2.32843 0 3 0.671573 3 1.5Z" transform="translate(19.7477 15)" fill="currentColor"/>
            </g>
            <g id="Vector_2">
                <path d="M 2.74775 1C 2.74775 0.447715 3.19547 0 3.74775 0L 4.91154 0C 5.87941 0 6.78783 0.466955 7.35112 1.25402L 10.7478 6L 2.74775 6L 2.74775 1Z" fill="currentColor"/>
                <path d="M 1.08818 3.95745C 1.79551 3.34014 2.70255 3 3.64137 3L 8.24775 3C 9.07618 3 9.74775 3.67157 9.74775 4.5C 9.74775 5.32843 9.07618 6 8.24775 6L 1.85414 6C 0.777774 6 0.277221 4.66519 1.08818 3.95745Z" fill="currentColor"/>
                <path d="M 25.4584 3L 6.20691 3C 3.08527 3 1.52195 6.77419 3.72928 8.98152L 4.36644 9.61868C 9.09262 14.3449 15.5027 17 22.1865 17L 38.0214 17C 39.9376 17 41.0106 14.7911 39.826 13.2849L 35.6192 7.93573C 33.1684 4.81935 29.423 3 25.4584 3Z" fill="currentColor"/>
                <path d="M 0.454799 11.9375C 2.95578 10.032 6.01306 9 9.15725 9L 15.2478 9.00001C 16.6285 9.00001 17.7478 10.1193 17.7478 11.5C 17.7478 12.8807 16.6285 14 15.2478 14L 1.15099 14C 0.0514286 14 -0.41983 12.6039 0.454799 11.9375Z" fill="currentColor"/>
                <path d="M 34.7477 16.5C 34.7477 17.3284 34.0762 18 33.2477 18C 32.4193 18 31.7477 17.3284 31.7477 16.5C 31.7477 15.6716 32.4193 15 33.2477 15C 34.0762 15 34.7477 15.6716 34.7477 16.5Z" fill="currentColor"/>
                <path d="M 16.7477 16.5C 16.7477 17.3284 16.0762 18 15.2477 18C 14.4193 18 13.7477 17.3284 13.7477 16.5C 13.7477 15.6716 14.4193 15 15.2477 15C 16.0762 15 16.7477 15.6716 16.7477 16.5Z" fill="currentColor"/>
            </g>
            <g id="Vector_3">
                <path d="M 0 1C 0 0.447715 0.447715 0 1 0C 1.55228 0 2 0.447715 2 1L 2 2C 2 2.55228 1.55228 3 1 3C 0.447715 3 0 2.55228 0 2L 0 1Z" transform="translate(8.74775 6)" fill="#E0E0E0"/>
                <path d="M 4 1C 4 0.447715 4.44772 0 5 0C 5.55228 0 6 0.447715 6 1L 6 2C 6 2.55228 5.55228 3 5 3C 4.44772 3 4 2.55228 4 2L 4 1Z" transform="translate(8.74775 6)" fill="#E0E0E0"/>
                <path d="M 8 1C 8 0.447715 8.44772 0 9 0C 9.55228 0 10 0.447715 10 1L 10 2C 10 2.55228 9.55228 3 9 3C 8.44772 3 8 2.55228 8 2L 8 1Z" transform="translate(8.74775 6)" fill="#E0E0E0"/>
                <path d="M 12 1C 12 0.447715 12.4477 0 13 0C 13.5523 0 14 0.447715 14 1L 14 2C 14 2.55228 13.5523 3 13 3C 12.4477 3 12 2.55228 12 2L 12 1Z" transform="translate(8.74775 6)" fill="#E0E0E0"/>
            </g>
            <mask id="mask0" mask-type="alpha" maskUnits="userSpaceOnUse" x="24" y="3" width="14" height="12">
                <g id="Vector 2.2">
                    <path d="M 12.7183 7.28406L 10.8879 4.95659C 8.4267 1.82704 4.66548 0 0.684078 0C 0.351083 0 0.118919 0.330329 0.231711 0.643641L 1.68816 4.68935C 1.76267 4.89631 1.84769 5.09935 1.94288 5.29766L 2.54422 6.55045C 2.82279 7.13082 3.40951 7.5 4.05327 7.5C 5.30826 7.5 6.52059 7.95551 7.46506 8.78193L 10 11C 12.264 11.849 14.213 9.18464 12.7183 7.28406Z" transform="translate(24.7478 3)" fill="currentColor"/>
                </g>
            </mask>
            <g mask="url(#mask0)">
                <g id="Rectangle 5.10">
                    <path d="M 0.438743 1.31623C 0.222899 0.668697 0.704868 0 1.38743 0L 7.22222 0L 10 3L 2.44152 3C 1.58066 3 0.81638 2.44914 0.544152 1.63246L 0.438743 1.31623Z" transform="translate(26.7478 6)" fill="#E0E0E0"/>
                </g>
            </g>
        </g>
    </g>
</svg>
